<svg width="381" height="61" viewBox="0 0 381 61" fill="none" xmlns="http://www.w3.org/2000/svg">
<g filter="url(#filter0_i_7_127)">
<path d="M0.56 31.68C0.56 26.1333 1.70667 21.2 4 16.88C6.34667 12.5067 9.65333 9.12 13.92 6.72C18.1867 4.26667 23.0933 3.04 28.64 3.04C35.68 3.04 41.6 4.93333 46.4 8.72C51.2 12.4533 54.2933 17.5467 55.68 24H38.8C37.7867 21.8667 36.3733 20.24 34.56 19.12C32.8 18 30.7467 17.44 28.4 17.44C24.7733 17.44 21.8667 18.7467 19.68 21.36C17.5467 23.92 16.48 27.36 16.48 31.68C16.48 36.0533 17.5467 39.5467 19.68 42.16C21.8667 44.72 24.7733 46 28.4 46C30.7467 46 32.8 45.44 34.56 44.32C36.3733 43.2 37.7867 41.5733 38.8 39.44H55.68C54.2933 45.8933 51.2 51.0133 46.4 54.8C41.6 58.5333 35.68 60.4 28.64 60.4C23.0933 60.4 18.1867 59.2 13.92 56.8C9.65333 54.3467 6.34667 50.96 4 46.64C1.70667 42.2667 0.56 37.28 0.56 31.68ZM92.625 14.72C97.745 14.72 101.798 16.4533 104.785 19.92C107.825 23.3333 109.345 27.9733 109.345 33.84V60H93.665V35.92C93.665 33.36 92.9983 31.36 91.665 29.92C90.3317 28.4267 88.545 27.68 86.305 27.68C83.9583 27.68 82.1183 28.4267 80.785 29.92C79.4517 31.36 78.785 33.36 78.785 35.92V60H63.105V0.799999H78.785V21.52C80.1717 19.4933 82.0383 17.8667 84.385 16.64C86.785 15.36 89.5317 14.72 92.625 14.72ZM115.389 37.52C115.389 32.88 116.215 28.8267 117.869 25.36C119.575 21.8933 121.869 19.2267 124.749 17.36C127.682 15.4933 130.935 14.56 134.509 14.56C137.602 14.56 140.269 15.1733 142.509 16.4C144.749 17.6267 146.482 19.28 147.709 21.36V15.12H163.389V60H147.709V53.76C146.482 55.84 144.722 57.4933 142.429 58.72C140.189 59.9467 137.549 60.56 134.509 60.56C130.935 60.56 127.682 59.6267 124.749 57.76C121.869 55.8933 119.575 53.2267 117.869 49.76C116.215 46.24 115.389 42.16 115.389 37.52ZM147.709 37.52C147.709 34.64 146.909 32.3733 145.309 30.72C143.762 29.0667 141.842 28.24 139.549 28.24C137.202 28.24 135.255 29.0667 133.709 30.72C132.162 32.32 131.389 34.5867 131.389 37.52C131.389 40.4 132.162 42.6933 133.709 44.4C135.255 46.0533 137.202 46.88 139.549 46.88C141.842 46.88 143.762 46.0533 145.309 44.4C146.909 42.7467 147.709 40.4533 147.709 37.52ZM198.804 46.64V60H192.004C180.537 60 174.804 54.32 174.804 42.96V28.16H169.284V15.12H174.804V4.24H190.564V15.12H198.724V28.16H190.564V43.2C190.564 44.4267 190.83 45.3067 191.364 45.84C191.95 46.3733 192.91 46.64 194.244 46.64H198.804ZM213.596 60.64C210.822 60.64 208.582 59.8933 206.876 58.4C205.222 56.8533 204.396 54.9067 204.396 52.56C204.396 50.2133 205.222 48.2667 206.876 46.72C208.582 45.1733 210.822 44.4 213.596 44.4C216.316 44.4 218.502 45.1733 220.156 46.72C221.862 48.2667 222.716 50.2133 222.716 52.56C222.716 54.8533 221.862 56.7733 220.156 58.32C218.502 59.8667 216.316 60.64 213.596 60.64ZM227.498 37.52C227.498 32.88 228.325 28.8267 229.978 25.36C231.685 21.8933 234.005 19.2267 236.938 17.36C239.871 15.4933 243.125 14.56 246.698 14.56C249.578 14.56 252.138 15.1733 254.378 16.4C256.671 17.5733 258.458 19.2 259.738 21.28V0.799999H275.498V60H259.738V53.76C258.511 55.84 256.778 57.4933 254.538 58.72C252.298 59.9467 249.658 60.56 246.618 60.56C243.045 60.56 239.791 59.6267 236.858 57.76C233.978 55.8933 231.685 53.2267 229.978 49.76C228.325 46.24 227.498 42.16 227.498 37.52ZM259.818 37.52C259.818 34.64 259.018 32.3733 257.418 30.72C255.871 29.0667 253.951 28.24 251.658 28.24C249.311 28.24 247.365 29.0667 245.818 30.72C244.271 32.32 243.498 34.5867 243.498 37.52C243.498 40.4 244.271 42.6933 245.818 44.4C247.365 46.0533 249.311 46.88 251.658 46.88C253.951 46.88 255.871 46.0533 257.418 44.4C259.018 42.7467 259.818 40.4533 259.818 37.52ZM327.313 37.04C327.313 38.2667 327.233 39.4933 327.073 40.72H297.393C297.553 43.1733 298.22 45.0133 299.393 46.24C300.62 47.4133 302.166 48 304.033 48C306.646 48 308.513 46.8267 309.633 44.48H326.353C325.66 47.5733 324.3 50.3467 322.273 52.8C320.3 55.2 317.793 57.0933 314.753 58.48C311.713 59.8667 308.353 60.56 304.673 60.56C300.246 60.56 296.3 59.6267 292.833 57.76C289.42 55.8933 286.726 53.2267 284.753 49.76C282.833 46.2933 281.873 42.2133 281.873 37.52C281.873 32.8267 282.833 28.7733 284.753 25.36C286.673 21.8933 289.34 19.2267 292.753 17.36C296.22 15.4933 300.193 14.56 304.673 14.56C309.1 14.56 313.02 15.4667 316.433 17.28C319.846 19.0933 322.513 21.7067 324.433 25.12C326.353 28.48 327.313 32.4533 327.313 37.04ZM311.313 33.12C311.313 31.2 310.673 29.7067 309.393 28.64C308.113 27.52 306.513 26.96 304.593 26.96C302.673 26.96 301.1 27.4933 299.873 28.56C298.646 29.5733 297.846 31.0933 297.473 33.12H311.313ZM355.25 45.2L363.65 15.12H380.37L364.93 60H345.41L329.97 15.12H346.69L355.25 45.2Z" fill="white"/>
</g>
<defs>
<filter id="filter0_i_7_127" x="0.560059" y="0.799988" width="379.81" height="63.84" filterUnits="userSpaceOnUse" color-interpolation-filters="sRGB">
<feFlood flood-opacity="0" result="BackgroundImageFix"/>
<feBlend mode="normal" in="SourceGraphic" in2="BackgroundImageFix" result="shape"/>
<feColorMatrix in="SourceAlpha" type="matrix" values="0 0 0 0 0 0 0 0 0 0 0 0 0 0 0 0 0 0 127 0" result="hardAlpha"/>
<feOffset dy="9"/>
<feGaussianBlur stdDeviation="2"/>
<feComposite in2="hardAlpha" operator="arithmetic" k2="-1" k3="1"/>
<feColorMatrix type="matrix" values="0 0 0 0 0 0 0 0 0 0 0 0 0 0 0 0 0 0 0.25 0"/>
<feBlend mode="normal" in2="shape" result="effect1_innerShadow_7_127"/>
</filter>
</defs>
</svg>
