<svg width="120" height="20" viewBox="0 0 120 20" fill="none" xmlns="http://www.w3.org/2000/svg">
<path d="M0.8 10.15C0.8 8.41667 1.15833 6.875 1.875 5.525C2.60833 4.15833 3.64167 3.1 4.975 2.35C6.30833 1.58333 7.84167 1.2 9.575 1.2C11.775 1.2 13.625 1.79167 15.125 2.975C16.625 4.14167 17.5917 5.73333 18.025 7.75H12.75C12.4333 7.08333 11.9917 6.575 11.425 6.225C10.875 5.875 10.2333 5.7 9.5 5.7C8.36667 5.7 7.45833 6.10833 6.775 6.925C6.10833 7.725 5.775 8.8 5.775 10.15C5.775 11.5167 6.10833 12.6083 6.775 13.425C7.45833 14.225 8.36667 14.625 9.5 14.625C10.2333 14.625 10.875 14.45 11.425 14.1C11.9917 13.75 12.4333 13.2417 12.75 12.575H18.025C17.5917 14.5917 16.625 16.1917 15.125 17.375C13.625 18.5417 11.775 19.125 9.575 19.125C7.84167 19.125 6.30833 18.75 4.975 18C3.64167 17.2333 2.60833 16.175 1.875 14.825C1.15833 13.4583 0.8 11.9 0.8 10.15ZM29.5703 4.85C31.1703 4.85 32.437 5.39167 33.3703 6.475C34.3203 7.54167 34.7953 8.99167 34.7953 10.825V19H29.8953V11.475C29.8953 10.675 29.687 10.05 29.2703 9.6C28.8536 9.13333 28.2953 8.9 27.5953 8.9C26.862 8.9 26.287 9.13333 25.8703 9.6C25.4536 10.05 25.2453 10.675 25.2453 11.475V19H20.3453V0.5H25.2453V6.975C25.6786 6.34167 26.262 5.83333 26.9953 5.45C27.7453 5.05 28.6036 4.85 29.5703 4.85ZM36.684 11.975C36.684 10.525 36.9423 9.25833 37.459 8.175C37.9923 7.09167 38.709 6.25833 39.609 5.675C40.5257 5.09167 41.5423 4.8 42.659 4.8C43.6257 4.8 44.459 4.99167 45.159 5.375C45.859 5.75833 46.4007 6.275 46.784 6.925V4.975H51.684V19H46.784V17.05C46.4007 17.7 45.8507 18.2167 45.134 18.6C44.434 18.9833 43.609 19.175 42.659 19.175C41.5423 19.175 40.5257 18.8833 39.609 18.3C38.709 17.7167 37.9923 16.8833 37.459 15.8C36.9423 14.7 36.684 13.425 36.684 11.975ZM46.784 11.975C46.784 11.075 46.534 10.3667 46.034 9.85C45.5507 9.33333 44.9507 9.075 44.234 9.075C43.5007 9.075 42.8923 9.33333 42.409 9.85C41.9257 10.35 41.684 11.0583 41.684 11.975C41.684 12.875 41.9257 13.5917 42.409 14.125C42.8923 14.6417 43.5007 14.9 44.234 14.9C44.9507 14.9 45.5507 14.6417 46.034 14.125C46.534 13.6083 46.784 12.8917 46.784 11.975ZM62.7512 14.825V19H60.6262C57.0428 19 55.2512 17.225 55.2512 13.675V9.05H53.5262V4.975H55.2512V1.575H60.1762V4.975H62.7262V9.05H60.1762V13.75C60.1762 14.1333 60.2595 14.4083 60.4262 14.575C60.6095 14.7417 60.9095 14.825 61.3262 14.825H62.7512ZM67.3736 19.2C66.507 19.2 65.807 18.9667 65.2736 18.5C64.757 18.0167 64.4986 17.4083 64.4986 16.675C64.4986 15.9417 64.757 15.3333 65.2736 14.85C65.807 14.3667 66.507 14.125 67.3736 14.125C68.2236 14.125 68.907 14.3667 69.4236 14.85C69.957 15.3333 70.2236 15.9417 70.2236 16.675C70.2236 17.3917 69.957 17.9917 69.4236 18.475C68.907 18.9583 68.2236 19.2 67.3736 19.2ZM71.7182 11.975C71.7182 10.525 71.9765 9.25833 72.4932 8.175C73.0265 7.09167 73.7515 6.25833 74.6682 5.675C75.5848 5.09167 76.6015 4.8 77.7182 4.8C78.6182 4.8 79.4182 4.99167 80.1182 5.375C80.8348 5.74167 81.3932 6.25 81.7932 6.9V0.5H86.7182V19H81.7932V17.05C81.4098 17.7 80.8682 18.2167 80.1682 18.6C79.4682 18.9833 78.6432 19.175 77.6932 19.175C76.5765 19.175 75.5598 18.8833 74.6432 18.3C73.7432 17.7167 73.0265 16.8833 72.4932 15.8C71.9765 14.7 71.7182 13.425 71.7182 11.975ZM81.8182 11.975C81.8182 11.075 81.5682 10.3667 81.0682 9.85C80.5848 9.33333 79.9848 9.075 79.2682 9.075C78.5348 9.075 77.9265 9.33333 77.4432 9.85C76.9598 10.35 76.7182 11.0583 76.7182 11.975C76.7182 12.875 76.9598 13.5917 77.4432 14.125C77.9265 14.6417 78.5348 14.9 79.2682 14.9C79.9848 14.9 80.5848 14.6417 81.0682 14.125C81.5682 13.6083 81.8182 12.8917 81.8182 11.975ZM102.91 11.825C102.91 12.2083 102.885 12.5917 102.835 12.975H93.5604C93.6104 13.7417 93.8187 14.3167 94.1854 14.7C94.5687 15.0667 95.052 15.25 95.6354 15.25C96.452 15.25 97.0354 14.8833 97.3854 14.15H102.61C102.394 15.1167 101.969 15.9833 101.335 16.75C100.719 17.5 99.9354 18.0917 98.9854 18.525C98.0354 18.9583 96.9854 19.175 95.8354 19.175C94.452 19.175 93.2187 18.8833 92.1354 18.3C91.0687 17.7167 90.227 16.8833 89.6104 15.8C89.0104 14.7167 88.7104 13.4417 88.7104 11.975C88.7104 10.5083 89.0104 9.24167 89.6104 8.175C90.2104 7.09167 91.0437 6.25833 92.1104 5.675C93.1937 5.09167 94.4354 4.8 95.8354 4.8C97.2187 4.8 98.4437 5.08333 99.5104 5.65C100.577 6.21667 101.41 7.03333 102.01 8.1C102.61 9.15 102.91 10.3917 102.91 11.825ZM97.9104 10.6C97.9104 10 97.7104 9.53333 97.3104 9.2C96.9104 8.85 96.4104 8.675 95.8104 8.675C95.2104 8.675 94.7187 8.84167 94.3354 9.175C93.952 9.49167 93.702 9.96667 93.5854 10.6H97.9104ZM111.641 14.375L114.266 4.975H119.491L114.666 19H108.566L103.741 4.975H108.966L111.641 14.375Z" fill="white"/>
</svg>
